# xmcd CD database file
# Copyright (C) 1993-1998 Ti Kan
#
# Track frame offsets:
# 150
# 31550
# 51513
# 68533
# 89200
# 104945
# 130175
# 154245
# 173843
# 195293
# 216273
# 230290
# 261268
# 289853
# 314993
#
# Disc length: 4542 seconds
# Revision: 1
# Processed by: cddbd v1.4PL0 Copyright (c) Steve Scherf et al.
# Submitted via: Gronk 1.4
#
DISCID=e411bc0f
DTITLE=Merl Saunders - Meridien Dreams
DYEAR=1900
DGENRE=blues
TTITLE0=Misty
TTITLE1=Memory
TTITLE2=This Melody To Keep You Warm
TTITLE3=Lover Man
TTITLE4=Imagine
TTITLE5=Paris Blues
TTITLE6=Willow Weep For Me
TTITLE7=As Time Goes By
TTITLE8=My Funny Valentine
TTITLE9=In Love With Love
TTITLE10=Follow
TTITLE11=Feelings
TTITLE12=Black Orpheus
TTITLE13=When Will I Know
TTITLE14=Song For My Father
EXTD=subtitled Solo Piano, Volume 1
EXTT0=
EXTT1=
EXTT2=
EXTT3=
EXTT4=
EXTT5=
EXTT6=
EXTT7=
EXTT8=
EXTT9=
EXTT10=
EXTT11=
EXTT12=
EXTT13=
EXTT14=
PLAYORDER=
